<mxfile host="app.diagrams.net" modified="2021-11-18T23:36:15.839Z" agent="5.0 (Windows NT 10.0; Win64; x64) AppleWebKit/537.36 (KHTML, like Gecko) Chrome/95.0.4638.69 Safari/537.36" etag="3V3HUw7MAADkt2wYJql_" version="15.8.1" type="github">
  <diagram id="Pc18oPqg_DHJBtxWHFg2" name="Page-1">
    <mxGraphModel dx="1736" dy="1300" grid="1" gridSize="10" guides="1" tooltips="1" connect="1" arrows="1" fold="1" page="0" pageScale="1" pageWidth="827" pageHeight="1169" math="0" shadow="0">
      <root>
        <mxCell id="0" />
        <mxCell id="1" parent="0" />
        <mxCell id="q2-x-zt7PfK26INY3TQk-2" value="Vehicle Node&lt;br&gt;(Edge Device)" style="rounded=1;whiteSpace=wrap;html=1;fillColor=#dae8fc;strokeColor=#6c8ebf;" vertex="1" parent="1">
          <mxGeometry x="860" y="380" width="120" height="60" as="geometry" />
        </mxCell>
        <mxCell id="q2-x-zt7PfK26INY3TQk-6" style="edgeStyle=orthogonalEdgeStyle;rounded=0;orthogonalLoop=1;jettySize=auto;html=1;exitX=1;exitY=1;exitDx=0;exitDy=0;fillColor=#dae8fc;strokeColor=#6c8ebf;" edge="1" parent="1" source="q2-x-zt7PfK26INY3TQk-3">
          <mxGeometry relative="1" as="geometry">
            <mxPoint x="1049.7586206896551" y="620.3448275862069" as="targetPoint" />
          </mxGeometry>
        </mxCell>
        <mxCell id="q2-x-zt7PfK26INY3TQk-3" value="" style="rounded=0;whiteSpace=wrap;html=1;fillColor=#dae8fc;strokeColor=#6c8ebf;" vertex="1" parent="1">
          <mxGeometry x="780" y="480" width="280" height="160" as="geometry" />
        </mxCell>
        <mxCell id="q2-x-zt7PfK26INY3TQk-4" value="" style="endArrow=none;html=1;rounded=0;entryX=0;entryY=1;entryDx=0;entryDy=0;exitX=0;exitY=0;exitDx=0;exitDy=0;fillColor=#dae8fc;strokeColor=#6c8ebf;" edge="1" parent="1" source="q2-x-zt7PfK26INY3TQk-3" target="q2-x-zt7PfK26INY3TQk-2">
          <mxGeometry width="50" height="50" relative="1" as="geometry">
            <mxPoint x="930" y="580" as="sourcePoint" />
            <mxPoint x="980" y="530" as="targetPoint" />
          </mxGeometry>
        </mxCell>
        <mxCell id="q2-x-zt7PfK26INY3TQk-5" value="" style="endArrow=none;html=1;rounded=0;entryX=1;entryY=1;entryDx=0;entryDy=0;exitX=1;exitY=0;exitDx=0;exitDy=0;fillColor=#dae8fc;strokeColor=#6c8ebf;" edge="1" parent="1" source="q2-x-zt7PfK26INY3TQk-3" target="q2-x-zt7PfK26INY3TQk-2">
          <mxGeometry width="50" height="50" relative="1" as="geometry">
            <mxPoint x="930" y="580" as="sourcePoint" />
            <mxPoint x="980" y="530" as="targetPoint" />
          </mxGeometry>
        </mxCell>
        <mxCell id="q2-x-zt7PfK26INY3TQk-7" value="" style="endArrow=none;html=1;rounded=0;entryX=0.5;entryY=0;entryDx=0;entryDy=0;exitX=0.5;exitY=1;exitDx=0;exitDy=0;fillColor=#dae8fc;strokeColor=#6c8ebf;" edge="1" parent="1" source="q2-x-zt7PfK26INY3TQk-3" target="q2-x-zt7PfK26INY3TQk-3">
          <mxGeometry width="50" height="50" relative="1" as="geometry">
            <mxPoint x="916" y="550" as="sourcePoint" />
            <mxPoint x="966" y="500" as="targetPoint" />
          </mxGeometry>
        </mxCell>
        <mxCell id="q2-x-zt7PfK26INY3TQk-8" value="OBU" style="text;html=1;strokeColor=none;fillColor=none;align=center;verticalAlign=middle;whiteSpace=wrap;rounded=0;" vertex="1" parent="1">
          <mxGeometry x="780" y="480" width="140" height="160" as="geometry" />
        </mxCell>
        <mxCell id="q2-x-zt7PfK26INY3TQk-9" value="Embedded System" style="text;html=1;strokeColor=none;fillColor=none;align=center;verticalAlign=middle;whiteSpace=wrap;rounded=0;" vertex="1" parent="1">
          <mxGeometry x="920" y="480" width="140" height="160" as="geometry" />
        </mxCell>
        <mxCell id="q2-x-zt7PfK26INY3TQk-10" value="RSU&lt;br&gt;(Fog Layer)" style="rounded=1;whiteSpace=wrap;html=1;fillColor=#dae8fc;strokeColor=#6c8ebf;" vertex="1" parent="1">
          <mxGeometry x="680" y="60" width="120" height="60" as="geometry" />
        </mxCell>
        <mxCell id="q2-x-zt7PfK26INY3TQk-11" value="" style="rounded=0;whiteSpace=wrap;html=1;fillColor=#dae8fc;strokeColor=#6c8ebf;" vertex="1" parent="1">
          <mxGeometry x="600" y="160" width="280" height="160" as="geometry" />
        </mxCell>
        <mxCell id="q2-x-zt7PfK26INY3TQk-12" value="" style="endArrow=none;html=1;rounded=0;entryX=0;entryY=1;entryDx=0;entryDy=0;exitX=0;exitY=0;exitDx=0;exitDy=0;fillColor=#dae8fc;strokeColor=#6c8ebf;" edge="1" parent="1" source="q2-x-zt7PfK26INY3TQk-11" target="q2-x-zt7PfK26INY3TQk-10">
          <mxGeometry width="50" height="50" relative="1" as="geometry">
            <mxPoint x="700" y="220" as="sourcePoint" />
            <mxPoint x="750" y="170" as="targetPoint" />
          </mxGeometry>
        </mxCell>
        <mxCell id="q2-x-zt7PfK26INY3TQk-13" value="" style="endArrow=none;html=1;rounded=0;entryX=1;entryY=1;entryDx=0;entryDy=0;exitX=1;exitY=0;exitDx=0;exitDy=0;fillColor=#dae8fc;strokeColor=#6c8ebf;" edge="1" parent="1" source="q2-x-zt7PfK26INY3TQk-11" target="q2-x-zt7PfK26INY3TQk-10">
          <mxGeometry width="50" height="50" relative="1" as="geometry">
            <mxPoint x="700" y="220" as="sourcePoint" />
            <mxPoint x="750" y="170" as="targetPoint" />
          </mxGeometry>
        </mxCell>
        <mxCell id="q2-x-zt7PfK26INY3TQk-15" value="" style="endArrow=none;html=1;rounded=0;entryX=0.5;entryY=0;entryDx=0;entryDy=0;exitX=0.5;exitY=1;exitDx=0;exitDy=0;fillColor=#dae8fc;strokeColor=#6c8ebf;" edge="1" parent="1" source="q2-x-zt7PfK26INY3TQk-11" target="q2-x-zt7PfK26INY3TQk-11">
          <mxGeometry width="50" height="50" relative="1" as="geometry">
            <mxPoint x="720" y="230" as="sourcePoint" />
            <mxPoint x="770" y="180" as="targetPoint" />
            <Array as="points" />
          </mxGeometry>
        </mxCell>
        <mxCell id="q2-x-zt7PfK26INY3TQk-16" value="Access gate" style="text;html=1;strokeColor=none;fillColor=none;align=center;verticalAlign=middle;whiteSpace=wrap;rounded=0;" vertex="1" parent="1">
          <mxGeometry x="600" y="160" width="140" height="160" as="geometry" />
        </mxCell>
        <mxCell id="q2-x-zt7PfK26INY3TQk-17" value="Embedded System" style="text;html=1;strokeColor=none;fillColor=none;align=center;verticalAlign=middle;whiteSpace=wrap;rounded=0;" vertex="1" parent="1">
          <mxGeometry x="740" y="160" width="140" height="160" as="geometry" />
        </mxCell>
        <mxCell id="q2-x-zt7PfK26INY3TQk-18" value="Block Manager&lt;br&gt;(Fog Layer)" style="rounded=1;whiteSpace=wrap;html=1;fillColor=#dae8fc;strokeColor=#6c8ebf;" vertex="1" parent="1">
          <mxGeometry x="1040" y="60" width="120" height="60" as="geometry" />
        </mxCell>
        <mxCell id="q2-x-zt7PfK26INY3TQk-19" value="" style="rounded=0;whiteSpace=wrap;html=1;fillColor=#dae8fc;strokeColor=#6c8ebf;" vertex="1" parent="1">
          <mxGeometry x="960" y="160" width="280" height="160" as="geometry" />
        </mxCell>
        <mxCell id="q2-x-zt7PfK26INY3TQk-20" value="" style="endArrow=none;html=1;rounded=0;entryX=0;entryY=1;entryDx=0;entryDy=0;fillColor=#dae8fc;strokeColor=#6c8ebf;" edge="1" parent="1" target="q2-x-zt7PfK26INY3TQk-18">
          <mxGeometry width="50" height="50" relative="1" as="geometry">
            <mxPoint x="960" y="160" as="sourcePoint" />
            <mxPoint x="1010" y="110" as="targetPoint" />
          </mxGeometry>
        </mxCell>
        <mxCell id="q2-x-zt7PfK26INY3TQk-21" value="" style="endArrow=none;html=1;rounded=0;entryX=1;entryY=1;entryDx=0;entryDy=0;exitX=1;exitY=0;exitDx=0;exitDy=0;fillColor=#dae8fc;strokeColor=#6c8ebf;" edge="1" parent="1" source="q2-x-zt7PfK26INY3TQk-19" target="q2-x-zt7PfK26INY3TQk-18">
          <mxGeometry width="50" height="50" relative="1" as="geometry">
            <mxPoint x="1160" y="170" as="sourcePoint" />
            <mxPoint x="1210" y="120" as="targetPoint" />
          </mxGeometry>
        </mxCell>
        <mxCell id="q2-x-zt7PfK26INY3TQk-22" value="" style="endArrow=none;html=1;rounded=0;entryX=0.5;entryY=0;entryDx=0;entryDy=0;exitX=0.5;exitY=1;exitDx=0;exitDy=0;fillColor=#dae8fc;strokeColor=#6c8ebf;" edge="1" parent="1" source="q2-x-zt7PfK26INY3TQk-19" target="q2-x-zt7PfK26INY3TQk-19">
          <mxGeometry width="50" height="50" relative="1" as="geometry">
            <mxPoint x="1040" y="250" as="sourcePoint" />
            <mxPoint x="1090" y="200" as="targetPoint" />
          </mxGeometry>
        </mxCell>
        <mxCell id="q2-x-zt7PfK26INY3TQk-23" value="Block Chain" style="text;html=1;strokeColor=none;fillColor=none;align=center;verticalAlign=middle;whiteSpace=wrap;rounded=0;" vertex="1" parent="1">
          <mxGeometry x="960" y="160" width="140" height="160" as="geometry" />
        </mxCell>
        <mxCell id="q2-x-zt7PfK26INY3TQk-24" value="Validators&lt;br&gt;(AM)" style="text;html=1;strokeColor=none;fillColor=none;align=center;verticalAlign=middle;whiteSpace=wrap;rounded=0;" vertex="1" parent="1">
          <mxGeometry x="1100" y="160" width="140" height="160" as="geometry" />
        </mxCell>
        <mxCell id="q2-x-zt7PfK26INY3TQk-25" value="Certification Authority&lt;br&gt;(Fog Layer)" style="rounded=1;whiteSpace=wrap;html=1;fillColor=#dae8fc;strokeColor=#6c8ebf;" vertex="1" parent="1">
          <mxGeometry x="320" y="60" width="120" height="60" as="geometry" />
        </mxCell>
        <mxCell id="q2-x-zt7PfK26INY3TQk-27" value="Updating the certification" style="rounded=0;whiteSpace=wrap;html=1;fillColor=#dae8fc;strokeColor=#6c8ebf;" vertex="1" parent="1">
          <mxGeometry x="240" y="160" width="280" height="160" as="geometry" />
        </mxCell>
        <mxCell id="q2-x-zt7PfK26INY3TQk-28" value="" style="endArrow=none;html=1;rounded=0;entryX=0;entryY=1;entryDx=0;entryDy=0;fillColor=#dae8fc;strokeColor=#6c8ebf;" edge="1" parent="1" target="q2-x-zt7PfK26INY3TQk-25">
          <mxGeometry width="50" height="50" relative="1" as="geometry">
            <mxPoint x="240" y="160" as="sourcePoint" />
            <mxPoint x="290" y="110" as="targetPoint" />
          </mxGeometry>
        </mxCell>
        <mxCell id="q2-x-zt7PfK26INY3TQk-29" value="" style="endArrow=none;html=1;rounded=0;entryX=1;entryY=1;entryDx=0;entryDy=0;exitX=1;exitY=0;exitDx=0;exitDy=0;fillColor=#dae8fc;strokeColor=#6c8ebf;" edge="1" parent="1" source="q2-x-zt7PfK26INY3TQk-27" target="q2-x-zt7PfK26INY3TQk-25">
          <mxGeometry width="50" height="50" relative="1" as="geometry">
            <mxPoint x="470" y="250" as="sourcePoint" />
            <mxPoint x="520" y="200" as="targetPoint" />
          </mxGeometry>
        </mxCell>
        <mxCell id="q2-x-zt7PfK26INY3TQk-31" value="Remote Data center&lt;br&gt;(Cloud Layer)" style="rounded=1;whiteSpace=wrap;html=1;fillColor=#dae8fc;strokeColor=#6c8ebf;" vertex="1" parent="1">
          <mxGeometry x="680" y="-260" width="120" height="60" as="geometry" />
        </mxCell>
        <mxCell id="q2-x-zt7PfK26INY3TQk-32" value="Data Ware Housing" style="rounded=0;whiteSpace=wrap;html=1;fillColor=#dae8fc;strokeColor=#6c8ebf;" vertex="1" parent="1">
          <mxGeometry x="600" y="-160" width="280" height="160" as="geometry" />
        </mxCell>
        <mxCell id="q2-x-zt7PfK26INY3TQk-33" value="" style="endArrow=none;html=1;rounded=0;entryX=0;entryY=1;entryDx=0;entryDy=0;fillColor=#dae8fc;strokeColor=#6c8ebf;" edge="1" parent="1" target="q2-x-zt7PfK26INY3TQk-31">
          <mxGeometry width="50" height="50" relative="1" as="geometry">
            <mxPoint x="600" y="-160" as="sourcePoint" />
            <mxPoint x="650" y="-210" as="targetPoint" />
          </mxGeometry>
        </mxCell>
        <mxCell id="q2-x-zt7PfK26INY3TQk-34" value="" style="endArrow=none;html=1;rounded=0;entryX=1;entryY=1;entryDx=0;entryDy=0;exitX=1;exitY=0;exitDx=0;exitDy=0;fillColor=#dae8fc;strokeColor=#6c8ebf;" edge="1" parent="1" source="q2-x-zt7PfK26INY3TQk-32" target="q2-x-zt7PfK26INY3TQk-31">
          <mxGeometry width="50" height="50" relative="1" as="geometry">
            <mxPoint x="830" y="-70" as="sourcePoint" />
            <mxPoint x="880" y="-120" as="targetPoint" />
          </mxGeometry>
        </mxCell>
        <mxCell id="q2-x-zt7PfK26INY3TQk-35" value="Initialization Phase" style="swimlane;fillColor=#dae8fc;strokeColor=#6c8ebf;" vertex="1" parent="1">
          <mxGeometry x="1640" y="-240" width="200" height="200" as="geometry" />
        </mxCell>
        <mxCell id="q2-x-zt7PfK26INY3TQk-37" value="Set Public Parameters" style="text;html=1;strokeColor=none;fillColor=none;align=center;verticalAlign=middle;whiteSpace=wrap;rounded=0;" vertex="1" parent="q2-x-zt7PfK26INY3TQk-35">
          <mxGeometry y="20" width="200" height="180" as="geometry" />
        </mxCell>
        <mxCell id="q2-x-zt7PfK26INY3TQk-38" value="IoV Node&lt;br&gt;(Edge Device)" style="rounded=1;whiteSpace=wrap;html=1;fillColor=#dae8fc;strokeColor=#6c8ebf;" vertex="1" parent="1">
          <mxGeometry x="500" y="380" width="120" height="60" as="geometry" />
        </mxCell>
        <mxCell id="q2-x-zt7PfK26INY3TQk-39" value="Date Gathering" style="rounded=0;whiteSpace=wrap;html=1;fillColor=#dae8fc;strokeColor=#6c8ebf;" vertex="1" parent="1">
          <mxGeometry x="420" y="480" width="280" height="160" as="geometry" />
        </mxCell>
        <mxCell id="q2-x-zt7PfK26INY3TQk-40" value="" style="endArrow=none;html=1;rounded=0;entryX=0;entryY=1;entryDx=0;entryDy=0;fillColor=#dae8fc;strokeColor=#6c8ebf;" edge="1" parent="1" target="q2-x-zt7PfK26INY3TQk-38">
          <mxGeometry width="50" height="50" relative="1" as="geometry">
            <mxPoint x="420" y="480" as="sourcePoint" />
            <mxPoint x="470" y="430" as="targetPoint" />
          </mxGeometry>
        </mxCell>
        <mxCell id="q2-x-zt7PfK26INY3TQk-41" value="" style="endArrow=none;html=1;rounded=0;entryX=1;entryY=1;entryDx=0;entryDy=0;exitX=1;exitY=0;exitDx=0;exitDy=0;fillColor=#dae8fc;strokeColor=#6c8ebf;" edge="1" parent="1" source="q2-x-zt7PfK26INY3TQk-39" target="q2-x-zt7PfK26INY3TQk-38">
          <mxGeometry width="50" height="50" relative="1" as="geometry">
            <mxPoint x="650" y="570" as="sourcePoint" />
            <mxPoint x="700" y="520" as="targetPoint" />
          </mxGeometry>
        </mxCell>
        <mxCell id="q2-x-zt7PfK26INY3TQk-42" value="Registration Phase" style="swimlane;align=center;fillColor=#dae8fc;strokeColor=#6c8ebf;" vertex="1" parent="1">
          <mxGeometry x="1640" y="40" width="520" height="360" as="geometry" />
        </mxCell>
        <mxCell id="q2-x-zt7PfK26INY3TQk-44" value="Lower Authority&lt;br&gt;Actors" style="rounded=1;whiteSpace=wrap;html=1;align=center;fillColor=#d5e8d4;strokeColor=#82b366;" vertex="1" parent="q2-x-zt7PfK26INY3TQk-42">
          <mxGeometry x="40" y="40" width="120" height="80" as="geometry" />
        </mxCell>
        <mxCell id="q2-x-zt7PfK26INY3TQk-45" value="BM" style="rounded=1;whiteSpace=wrap;html=1;align=center;fillColor=#d5e8d4;strokeColor=#82b366;" vertex="1" parent="q2-x-zt7PfK26INY3TQk-42">
          <mxGeometry x="360" y="40" width="120" height="80" as="geometry" />
        </mxCell>
        <mxCell id="q2-x-zt7PfK26INY3TQk-46" value="" style="endArrow=none;html=1;rounded=0;fillColor=#d5e8d4;strokeColor=#82b366;" edge="1" parent="q2-x-zt7PfK26INY3TQk-42">
          <mxGeometry width="50" height="50" relative="1" as="geometry">
            <mxPoint x="100" y="320" as="sourcePoint" />
            <mxPoint x="100" y="120" as="targetPoint" />
          </mxGeometry>
        </mxCell>
        <mxCell id="q2-x-zt7PfK26INY3TQk-47" value="" style="endArrow=none;html=1;rounded=0;entryX=0.5;entryY=1;entryDx=0;entryDy=0;fillColor=#d5e8d4;strokeColor=#82b366;" edge="1" parent="1" target="q2-x-zt7PfK26INY3TQk-45">
          <mxGeometry width="50" height="50" relative="1" as="geometry">
            <mxPoint x="2060" y="360" as="sourcePoint" />
            <mxPoint x="1910" y="190" as="targetPoint" />
          </mxGeometry>
        </mxCell>
        <mxCell id="q2-x-zt7PfK26INY3TQk-48" value="" style="endArrow=classic;html=1;rounded=0;fillColor=#d5e8d4;strokeColor=#82b366;" edge="1" parent="1">
          <mxGeometry width="50" height="50" relative="1" as="geometry">
            <mxPoint x="1740" y="200" as="sourcePoint" />
            <mxPoint x="2060" y="200" as="targetPoint" />
          </mxGeometry>
        </mxCell>
        <mxCell id="q2-x-zt7PfK26INY3TQk-49" value="Authentication Phase" style="swimlane;align=center;fillColor=#dae8fc;strokeColor=#6c8ebf;" vertex="1" parent="1">
          <mxGeometry x="1640" y="480" width="520" height="360" as="geometry" />
        </mxCell>
        <mxCell id="q2-x-zt7PfK26INY3TQk-50" value="Lower Authority&lt;br&gt;Actors" style="rounded=1;whiteSpace=wrap;html=1;align=center;fillColor=#d5e8d4;strokeColor=#82b366;" vertex="1" parent="q2-x-zt7PfK26INY3TQk-49">
          <mxGeometry x="40" y="40" width="120" height="80" as="geometry" />
        </mxCell>
        <mxCell id="q2-x-zt7PfK26INY3TQk-51" value="BM" style="rounded=1;whiteSpace=wrap;html=1;align=center;fillColor=#d5e8d4;strokeColor=#82b366;" vertex="1" parent="q2-x-zt7PfK26INY3TQk-49">
          <mxGeometry x="360" y="40" width="120" height="80" as="geometry" />
        </mxCell>
        <mxCell id="q2-x-zt7PfK26INY3TQk-52" value="" style="endArrow=none;html=1;rounded=0;fillColor=#d5e8d4;strokeColor=#82b366;" edge="1" parent="q2-x-zt7PfK26INY3TQk-49">
          <mxGeometry width="50" height="50" relative="1" as="geometry">
            <mxPoint x="100" y="320" as="sourcePoint" />
            <mxPoint x="100" y="120" as="targetPoint" />
          </mxGeometry>
        </mxCell>
        <mxCell id="q2-x-zt7PfK26INY3TQk-53" value="" style="endArrow=none;html=1;rounded=0;entryX=0.5;entryY=1;entryDx=0;entryDy=0;fillColor=#d5e8d4;strokeColor=#82b366;" edge="1" parent="q2-x-zt7PfK26INY3TQk-49" target="q2-x-zt7PfK26INY3TQk-51">
          <mxGeometry width="50" height="50" relative="1" as="geometry">
            <mxPoint x="420" y="320" as="sourcePoint" />
            <mxPoint x="270" y="150" as="targetPoint" />
          </mxGeometry>
        </mxCell>
        <mxCell id="q2-x-zt7PfK26INY3TQk-54" value="" style="endArrow=classic;html=1;rounded=0;fillColor=#d5e8d4;strokeColor=#82b366;" edge="1" parent="q2-x-zt7PfK26INY3TQk-49">
          <mxGeometry width="50" height="50" relative="1" as="geometry">
            <mxPoint x="100" y="160" as="sourcePoint" />
            <mxPoint x="420" y="160" as="targetPoint" />
          </mxGeometry>
        </mxCell>
        <mxCell id="q2-x-zt7PfK26INY3TQk-55" value="Certificate Update Phase" style="swimlane;align=center;fillColor=#dae8fc;strokeColor=#6c8ebf;" vertex="1" parent="1">
          <mxGeometry x="1640" y="920" width="520" height="360" as="geometry" />
        </mxCell>
        <mxCell id="q2-x-zt7PfK26INY3TQk-56" value="Lower Authority&lt;br&gt;Actors" style="rounded=1;whiteSpace=wrap;html=1;align=center;fillColor=#d5e8d4;strokeColor=#82b366;" vertex="1" parent="q2-x-zt7PfK26INY3TQk-55">
          <mxGeometry x="40" y="40" width="120" height="80" as="geometry" />
        </mxCell>
        <mxCell id="q2-x-zt7PfK26INY3TQk-57" value="BM" style="rounded=1;whiteSpace=wrap;html=1;align=center;fillColor=#d5e8d4;strokeColor=#82b366;" vertex="1" parent="q2-x-zt7PfK26INY3TQk-55">
          <mxGeometry x="360" y="40" width="120" height="80" as="geometry" />
        </mxCell>
        <mxCell id="q2-x-zt7PfK26INY3TQk-58" value="" style="endArrow=none;html=1;rounded=0;fillColor=#d5e8d4;strokeColor=#82b366;" edge="1" parent="q2-x-zt7PfK26INY3TQk-55">
          <mxGeometry width="50" height="50" relative="1" as="geometry">
            <mxPoint x="100" y="320" as="sourcePoint" />
            <mxPoint x="100" y="120" as="targetPoint" />
          </mxGeometry>
        </mxCell>
        <mxCell id="q2-x-zt7PfK26INY3TQk-59" value="" style="endArrow=none;html=1;rounded=0;entryX=0.5;entryY=1;entryDx=0;entryDy=0;fillColor=#d5e8d4;strokeColor=#82b366;" edge="1" parent="q2-x-zt7PfK26INY3TQk-55" target="q2-x-zt7PfK26INY3TQk-57">
          <mxGeometry width="50" height="50" relative="1" as="geometry">
            <mxPoint x="420" y="320" as="sourcePoint" />
            <mxPoint x="270" y="150" as="targetPoint" />
          </mxGeometry>
        </mxCell>
        <mxCell id="q2-x-zt7PfK26INY3TQk-60" value="" style="endArrow=classic;html=1;rounded=0;fillColor=#d5e8d4;strokeColor=#82b366;" edge="1" parent="q2-x-zt7PfK26INY3TQk-55">
          <mxGeometry width="50" height="50" relative="1" as="geometry">
            <mxPoint x="100" y="160" as="sourcePoint" />
            <mxPoint x="420" y="160" as="targetPoint" />
          </mxGeometry>
        </mxCell>
        <mxCell id="q2-x-zt7PfK26INY3TQk-61" value="Consensus Algorithm" style="rounded=1;whiteSpace=wrap;html=1;align=center;fillColor=#dae8fc;strokeColor=#6c8ebf;" vertex="1" parent="1">
          <mxGeometry x="1920" y="-240" width="120" height="80" as="geometry" />
        </mxCell>
        <mxCell id="q2-x-zt7PfK26INY3TQk-62" value="Data gathering process" style="swimlane;align=center;fillColor=#dae8fc;strokeColor=#6c8ebf;" vertex="1" parent="1">
          <mxGeometry x="1040" y="920" width="520" height="360" as="geometry" />
        </mxCell>
        <mxCell id="q2-x-zt7PfK26INY3TQk-63" value="Lower Authority&lt;br&gt;Actors" style="rounded=1;whiteSpace=wrap;html=1;align=center;fillColor=#d5e8d4;strokeColor=#82b366;" vertex="1" parent="q2-x-zt7PfK26INY3TQk-62">
          <mxGeometry x="40" y="40" width="120" height="80" as="geometry" />
        </mxCell>
        <mxCell id="q2-x-zt7PfK26INY3TQk-64" value="Data Center" style="rounded=1;whiteSpace=wrap;html=1;align=center;fillColor=#d5e8d4;strokeColor=#82b366;" vertex="1" parent="q2-x-zt7PfK26INY3TQk-62">
          <mxGeometry x="360" y="40" width="120" height="80" as="geometry" />
        </mxCell>
        <mxCell id="q2-x-zt7PfK26INY3TQk-65" value="" style="endArrow=none;html=1;rounded=0;fillColor=#d5e8d4;strokeColor=#82b366;" edge="1" parent="q2-x-zt7PfK26INY3TQk-62">
          <mxGeometry width="50" height="50" relative="1" as="geometry">
            <mxPoint x="100" y="320" as="sourcePoint" />
            <mxPoint x="100" y="120" as="targetPoint" />
          </mxGeometry>
        </mxCell>
        <mxCell id="q2-x-zt7PfK26INY3TQk-66" value="" style="endArrow=none;html=1;rounded=0;entryX=0.5;entryY=1;entryDx=0;entryDy=0;fillColor=#d5e8d4;strokeColor=#82b366;" edge="1" parent="q2-x-zt7PfK26INY3TQk-62" target="q2-x-zt7PfK26INY3TQk-64">
          <mxGeometry width="50" height="50" relative="1" as="geometry">
            <mxPoint x="420" y="320" as="sourcePoint" />
            <mxPoint x="270" y="150" as="targetPoint" />
          </mxGeometry>
        </mxCell>
        <mxCell id="q2-x-zt7PfK26INY3TQk-67" value="" style="endArrow=classic;html=1;rounded=0;fillColor=#d5e8d4;strokeColor=#82b366;" edge="1" parent="q2-x-zt7PfK26INY3TQk-62">
          <mxGeometry width="50" height="50" relative="1" as="geometry">
            <mxPoint x="100" y="160" as="sourcePoint" />
            <mxPoint x="420" y="160" as="targetPoint" />
          </mxGeometry>
        </mxCell>
        <mxCell id="q2-x-zt7PfK26INY3TQk-68" value="Real Time Services Process" style="swimlane;align=center;fillColor=#dae8fc;strokeColor=#6c8ebf;" vertex="1" parent="1">
          <mxGeometry x="440" y="920" width="520" height="360" as="geometry" />
        </mxCell>
        <mxCell id="q2-x-zt7PfK26INY3TQk-69" value="Lower Authority&lt;br&gt;Actors" style="rounded=1;whiteSpace=wrap;html=1;align=center;fillColor=#d5e8d4;strokeColor=#82b366;" vertex="1" parent="q2-x-zt7PfK26INY3TQk-68">
          <mxGeometry x="40" y="40" width="120" height="80" as="geometry" />
        </mxCell>
        <mxCell id="q2-x-zt7PfK26INY3TQk-70" value="BM ,Data Center" style="rounded=1;whiteSpace=wrap;html=1;align=center;fillColor=#d5e8d4;strokeColor=#82b366;" vertex="1" parent="q2-x-zt7PfK26INY3TQk-68">
          <mxGeometry x="360" y="40" width="120" height="80" as="geometry" />
        </mxCell>
        <mxCell id="q2-x-zt7PfK26INY3TQk-71" value="" style="endArrow=none;html=1;rounded=0;fillColor=#d5e8d4;strokeColor=#82b366;" edge="1" parent="q2-x-zt7PfK26INY3TQk-68">
          <mxGeometry width="50" height="50" relative="1" as="geometry">
            <mxPoint x="100" y="320" as="sourcePoint" />
            <mxPoint x="100" y="120" as="targetPoint" />
          </mxGeometry>
        </mxCell>
        <mxCell id="q2-x-zt7PfK26INY3TQk-72" value="" style="endArrow=none;html=1;rounded=0;entryX=0.5;entryY=1;entryDx=0;entryDy=0;fillColor=#d5e8d4;strokeColor=#82b366;" edge="1" parent="q2-x-zt7PfK26INY3TQk-68" target="q2-x-zt7PfK26INY3TQk-70">
          <mxGeometry width="50" height="50" relative="1" as="geometry">
            <mxPoint x="420" y="320" as="sourcePoint" />
            <mxPoint x="270" y="150" as="targetPoint" />
          </mxGeometry>
        </mxCell>
        <mxCell id="q2-x-zt7PfK26INY3TQk-73" value="" style="endArrow=classic;html=1;rounded=0;fillColor=#d5e8d4;strokeColor=#82b366;" edge="1" parent="q2-x-zt7PfK26INY3TQk-68">
          <mxGeometry width="50" height="50" relative="1" as="geometry">
            <mxPoint x="100" y="160" as="sourcePoint" />
            <mxPoint x="420" y="160" as="targetPoint" />
          </mxGeometry>
        </mxCell>
      </root>
    </mxGraphModel>
  </diagram>
</mxfile>
